<svg width="60" height="60" viewBox="0 0 60 60" fill="none" xmlns="http://www.w3.org/2000/svg">
<circle cx="30" cy="30" r="30" fill="#FAE2CB"/>
<g clip-path="url(#clip0_25_16)">
<path d="M41.1604 36.8826C42.3394 36.8507 43.3438 37.2109 44.1844 37.9986C44.9478 38.7131 45.3651 39.6077 45.4932 40.6488C45.5356 40.9935 45.3846 41.2012 45.0835 41.3124C45.338 43.4747 44.4346 44.9855 42.6618 45.4164C41.2545 45.7611 39.2518 45.0855 38.7022 42.7982C38.6843 42.7982 38.658 42.7921 38.6496 42.7982C38.1516 43.3575 37.7928 43.2937 37.5248 42.5939C37.4595 42.4215 37.4094 42.2492 37.3687 42.1251C37.0506 42.1595 36.7469 42.2207 36.4424 42.2216C33.8168 42.2291 31.1912 42.2291 28.5656 42.2216C28.3111 42.2216 28.189 42.2466 28.1415 42.5663C27.904 44.1452 26.5086 45.3052 24.9182 45.2906C24.1492 45.287 23.4067 45.0054 22.8236 44.496C22.2406 43.9867 21.8551 43.283 21.7364 42.5112C21.7237 42.425 21.7041 42.344 21.6906 42.2733C21.4361 42.2233 21.1901 42.2026 20.9628 42.1259C20.0051 41.8045 19.4673 40.8677 19.5496 39.7197C19.6083 38.9358 19.8015 38.1684 20.1205 37.4522C20.4352 36.7378 20.7991 36.0466 21.1596 35.3528C21.1883 35.3015 21.2278 35.2572 21.2753 35.2233C21.3228 35.1893 21.3772 35.1664 21.4344 35.1563C23.9325 35.1468 26.4314 35.1494 28.9295 35.1512C28.9502 35.1545 28.9703 35.1612 28.9889 35.171C28.8252 36.7162 29.0559 37.5841 29.7845 38.0753C29.8134 37.6349 29.8431 37.2135 29.8694 36.7878C29.9712 35.0497 30.0729 33.3111 30.1747 31.572C30.2053 31.0549 30.056 30.8739 29.5436 30.8179C28.776 30.7317 28.0083 30.6507 27.2415 30.5593C27.0299 30.5383 26.8252 30.4719 26.6407 30.3646C26.4561 30.2574 26.2961 30.1116 26.171 29.937C26.0459 29.7624 25.9587 29.5628 25.9149 29.3514C25.8712 29.1401 25.8721 28.9217 25.9174 28.7107C26.3896 26.3757 26.8683 24.0419 27.3535 21.7092C27.5681 20.675 28.4265 20.0605 29.4257 20.182C30.3266 20.2906 31.0001 21.112 31.0221 22.1005C31.0325 22.254 31.0921 22.3999 31.1918 22.5159C32.0765 23.5156 33.2403 24.0448 34.4507 24.4981C35.0243 24.7201 35.6356 24.8241 36.249 24.804C37.0735 24.7739 37.8997 24.7937 38.7259 24.798C39.7599 24.804 40.3656 25.4168 40.3715 26.4596C40.3715 26.7819 40.3791 27.1051 40.3664 27.4274C40.3546 27.8135 40.1979 28.1804 39.9283 28.4529C39.6588 28.7253 39.2968 28.8826 38.9168 28.8925C38.5775 28.9038 38.2441 28.8925 37.8632 28.8925C38.1058 30.7153 38.4918 32.3993 40.028 33.5602C41.0136 34.3057 41.397 35.327 41.2053 36.5654C41.1884 36.6594 41.1773 36.7542 41.1604 36.8826ZM34.7824 27.3301C33.1437 27.1411 31.5889 26.493 30.2918 25.4582C30.1671 26.0037 30.0466 26.501 29.9398 27.0008C29.8549 27.4145 29.9499 27.5912 30.3435 27.7429C31.0651 28.0198 31.7872 28.2947 32.51 28.5676C33.4235 28.9124 33.7755 29.4346 33.6788 30.4128C33.4693 32.5407 33.2369 34.6659 33.0155 36.7903C32.9527 37.3936 32.8934 37.9969 32.8323 38.6148H34.7833L34.7824 27.3301ZM41.9077 44.4408C43.5372 44.4477 44.6365 42.7439 43.9731 41.246C43.94 41.1501 43.8797 41.0662 43.7999 41.0049C43.7201 40.9436 43.6243 40.9076 43.5244 40.9013C42.2682 40.772 41.084 40.9875 39.9838 41.6364C39.8847 41.687 39.8023 41.7661 39.7469 41.8638C39.6916 41.9616 39.6657 42.0737 39.6725 42.1863C39.6822 42.7838 39.9212 43.3539 40.3386 43.775C40.7559 44.1961 41.3186 44.435 41.9068 44.4408H41.9077ZM22.7619 42.2457C22.7509 43.3497 23.8494 44.3141 25.0462 44.2624C26.1625 44.2159 27.2042 43.211 27.1202 42.2457H22.7619Z" fill="#60340B"/>
<path d="M19.5878 21.7264C20.7307 21.7264 21.8735 21.7264 23.0164 21.7264C24.0343 21.7264 24.6645 22.3668 24.6654 23.3932C24.6654 25.2099 24.6654 27.0267 24.6654 28.8434C24.6654 29.8535 24.0309 30.4998 23.041 30.5007C20.7338 30.5007 18.4265 30.5007 16.1193 30.5007C15.1481 30.5007 14.5076 29.85 14.5025 28.8684C14.4992 27.0298 14.4992 25.1913 14.5025 23.3527C14.5025 22.3874 15.1481 21.7316 16.0956 21.7273C17.2593 21.7221 18.4231 21.7264 19.5878 21.7264Z" fill="#60340B"/>
<path d="M29.2188 34.1153H27.7462C25.5772 34.1153 23.4074 34.1153 21.2385 34.1204C21.1454 34.1282 21.0519 34.1113 20.9672 34.0714C20.8825 34.0316 20.8093 33.97 20.755 33.8929C20.3577 33.3843 20.1274 32.7618 20.0967 32.1132C20.0755 31.6702 20.2604 31.4669 20.6905 31.4669C23.3359 31.4669 25.9816 31.4669 28.6275 31.4669C28.9897 31.4669 29.2043 31.628 29.2137 31.9572C29.2323 32.6605 29.2188 33.3681 29.2188 34.1153Z" fill="#60340B"/>
<path d="M28.2246 17.0674C28.2298 16.3822 28.5024 15.7272 28.9825 15.2462C29.4627 14.7651 30.1111 14.4973 30.7855 14.5017C31.1197 14.5045 31.45 14.5742 31.7577 14.7067C32.0654 14.8393 32.3444 15.0321 32.5787 15.2742C32.813 15.5163 32.9981 15.8029 33.1234 16.1177C33.2487 16.4324 33.3118 16.7692 33.309 17.1087C33.3003 17.7886 33.0284 18.4376 32.5521 18.9153C32.0758 19.3929 31.4335 19.6607 30.7643 19.6606C30.4299 19.6599 30.0989 19.5923 29.7902 19.4616C29.4816 19.3309 29.2013 19.1396 28.9655 18.8988C28.7296 18.6579 28.5428 18.3722 28.4156 18.058C28.2885 17.7437 28.2236 17.4071 28.2246 17.0674Z" fill="#60340B"/>
</g>
<defs>
<clipPath id="clip0_25_16">
<rect width="31" height="31" fill="white" transform="translate(14.5 14.5)"/>
</clipPath>
</defs>
</svg>
