<svg width="60" height="61" viewBox="0 0 60 61" fill="none" xmlns="http://www.w3.org/2000/svg">
<circle cx="30" cy="30.5371" r="30" fill="#FAE2CB"/>
<g clip-path="url(#clip0_25_17)">
<path d="M30.5984 14.0371C30.8889 14.0996 31.1841 14.148 31.4699 14.2266C33.5563 14.8002 34.9056 16.1247 35.6766 18.0893C33.1631 18.563 31.296 19.8753 29.998 22.0138C28.7033 19.8759 26.8369 18.5617 24.3308 18.0893C24.8878 16.565 25.8527 15.3958 27.3293 14.6926C27.9743 14.3858 28.7066 14.2504 29.399 14.0371C29.7988 14.0371 30.1986 14.0371 30.5984 14.0371Z" fill="#60340B"/>
<path d="M23.7344 47.0372C23.5818 46.936 23.4092 46.8535 23.2806 46.7291C22.9075 46.3675 22.8968 45.8113 23.2693 45.4213C23.6604 45.0121 24.0696 44.617 24.4947 44.2412C24.5733 44.1716 24.7806 44.1819 24.9025 44.2244C26.1925 44.6724 27.5179 44.9495 28.8852 45.0559C31.0082 45.2209 33.0645 44.9308 35.0589 44.2277C35.3241 44.1342 35.478 44.1729 35.6559 44.3643C35.9151 44.6434 36.201 44.8986 36.4755 45.1642C37.2465 45.9086 37.1785 46.5087 36.2623 47.0378H23.7344V47.0372Z" fill="#60340B"/>
<path d="M42.2607 14.0371C42.324 14.0751 42.3853 14.1157 42.4506 14.1505C43.0283 14.458 43.1969 15.1567 42.7458 15.6246C41.8395 16.5656 40.8973 17.4744 39.9631 18.3896C39.9112 18.4405 39.7865 18.4586 39.7059 18.4425C39.1222 18.3252 38.5405 18.1976 37.9601 18.0661C37.8735 18.0461 37.7955 17.9894 37.7129 17.9494C37.7569 17.8695 37.7842 17.7747 37.8468 17.7129C38.9769 16.5933 40.1091 15.4751 41.2492 14.3639C41.3844 14.2318 41.567 14.1447 41.7276 14.0371H42.2607V14.0371Z" fill="#60340B"/>
<path d="M17.4008 33.4478H33.1638C33.7402 34.6949 34.711 35.4252 36.165 35.3562C37.4557 35.295 38.3146 34.5866 38.819 33.449H42.5812C41.7762 37.527 37.561 42.8482 30.5777 43.1512C23.5525 43.456 18.5003 38.4313 17.4008 33.4478Z" fill="#60340B"/>
<path d="M42.9637 25.7032C42.27 25.7032 41.5737 25.6967 40.878 25.7057C40.4022 25.7115 39.9178 25.6909 39.452 25.767C38.0321 25.9977 37.0146 27.1721 36.9999 28.5707C36.9859 29.8591 37.0032 31.1475 36.9932 32.4353C36.9873 33.1958 36.2296 33.6612 35.5546 33.3299C35.1715 33.1417 34.9969 32.8252 34.9969 32.4134C34.9969 31.2004 34.9982 29.9874 34.9969 28.7737C34.9949 26.9316 33.7275 25.7064 31.8244 25.7038C31.5606 25.7038 31.2967 25.7038 30.9895 25.7038C31.0695 23.6374 31.9191 21.9913 33.6875 20.8814C35.7732 19.573 37.9534 19.544 40.1031 20.7506C42.1161 21.8805 43.0523 24.0338 42.963 25.7038L42.9637 25.7032Z" fill="#60340B"/>
<path d="M32.9979 31.5039H32.5781C27.1361 31.5039 21.6934 31.5039 16.2514 31.5039C15.3598 31.5039 15.0033 31.159 15.0053 30.2934C15.006 29.9609 14.982 29.6231 15.03 29.2964C15.1752 28.3044 16.0068 27.6393 17.0797 27.638C20.2674 27.6348 23.4545 27.6367 26.6423 27.6367C28.3748 27.6367 30.1073 27.6367 31.8404 27.6367C32.6021 27.6367 32.9959 28.0124 32.9972 28.7395C32.9992 29.6496 32.9972 30.5603 32.9972 31.5032L32.9979 31.5039Z" fill="#60340B"/>
<path d="M29.0165 25.6903H17.001C17.0537 23.8012 17.796 22.2401 19.3539 21.1141C21.3449 19.6749 23.5265 19.4699 25.7414 20.5598C27.861 21.6027 28.8852 23.3732 29.0165 25.6903Z" fill="#60340B"/>
<path d="M38.9983 31.5014C38.9983 30.4836 38.9836 29.5072 39.0043 28.532C39.0149 28.037 39.4474 27.6477 39.9678 27.6419C41.0113 27.6297 42.0561 27.6206 43.0996 27.6458C44.1024 27.6696 44.9294 28.4708 44.9853 29.4395C45.0073 29.8146 45.0027 30.1917 44.9887 30.5668C44.9693 31.0708 44.5769 31.4911 44.0638 31.4956C42.3886 31.5117 40.7134 31.502 38.9983 31.502V31.5014Z" fill="#60340B"/>
</g>
<defs>
<clipPath id="clip0_25_17">
<rect width="30" height="33" fill="white" transform="translate(15 14.0371)"/>
</clipPath>
</defs>
</svg>
