<svg width="60" height="61" viewBox="0 0 60 61" fill="none" xmlns="http://www.w3.org/2000/svg">
<circle cx="30" cy="30.5371" r="30" fill="#FAE2CB"/>
<g clip-path="url(#clip0_25_18)">
<path d="M16.5 31.5943H18.5549L19.6967 25.9146H17.6416L16.5 31.5943ZM17.7548 25.2372H19.8183L20.1574 23.5378H18.0947L17.7548 25.2372ZM19.3541 33.1925H21.4092L22.6648 27.0562H24.206L24.4333 25.9146H22.9216L22.9789 25.6578C23.0644 25.1737 23.2357 24.6302 24.0062 24.6302C24.4634 24.6302 24.8912 24.6587 25.3191 24.8585L25.5477 23.6599C25.0709 23.4917 24.5691 23.4048 24.0635 23.4028C22.408 23.4028 21.2667 24.3734 20.8383 25.9146H20.1248L19.8965 27.0562H20.61L19.3541 33.1925Z" fill="#60340B"/>
<path d="M25.8615 31.7085C28.2875 31.7085 29.9715 29.5106 29.9715 27.7126C29.9715 26.3712 28.7441 25.8003 27.5455 25.8003C24.8904 25.8003 23.4356 28.1706 23.4356 29.7962C23.4356 31.1376 24.6914 31.7085 25.8615 31.7085ZM32.3695 31.7085C34.7955 31.7085 36.4795 29.5106 36.4795 27.7126C36.4795 26.3712 35.2236 25.8003 34.0247 25.8003C31.3704 25.8003 29.915 28.1692 29.915 29.7962C29.915 31.1376 31.1994 31.7085 32.3695 31.7085ZM39.8187 31.5943H41.845L43.5 23.5182H41.4452L40.9597 25.9156L40.1035 25.8301C38.1056 25.8301 36.2791 28.3986 36.2791 30.2254C36.2791 30.9674 36.7632 31.7096 37.592 31.7096C38.7621 31.7096 39.5898 31.1387 39.9316 30.5678H40.0457L39.8187 31.5943ZM33.482 35.847C31.887 37.1686 29.8383 37.8139 27.7738 37.6451C25.0623 37.4737 23.1215 35.3901 22.7791 33.1925H22.8931C23.5211 34.564 25.0338 35.847 26.8891 36.0466C28.7716 36.2749 31.0276 35.4189 32.2547 34.2485L30.8848 33.1925H35.0232L34.1089 37.588L33.5095 35.8755L33.482 35.847Z" fill="#60340B"/>
</g>
<defs>
<clipPath id="clip0_25_18">
<rect width="27" height="14.2686" fill="white" transform="translate(16.5 23.4028)"/>
</clipPath>
</defs>
</svg>
