<svg width="27" height="15" viewBox="0 0 27 15" fill="none" xmlns="http://www.w3.org/2000/svg">
<g clip-path="url(#clip0_61_17)">
<path d="M0 8.34134H2.05485L3.1967 2.66165H1.14158L0 8.34134ZM1.2548 1.98424H3.31826L3.65737 0.284902H1.59472L1.2548 1.98424ZM2.85409 9.93955H4.90921L6.16482 3.80324H7.70603L7.93327 2.66165H6.42164L6.47892 2.40483C6.56444 1.92077 6.73575 1.37727 7.50622 1.37727C7.96339 1.37727 8.39124 1.40578 8.8191 1.60559L9.04769 0.406994C8.57086 0.238748 8.06914 0.15184 7.5635 0.149902C5.908 0.149902 4.76668 1.12045 4.33829 2.66165H3.62483L3.39651 3.80324H4.10997L2.85409 9.93955Z" fill="#F59A1B"/>
<path d="M9.36152 8.45562C11.7875 8.45562 13.4715 6.2577 13.4715 4.45967C13.4715 3.11828 12.2441 2.54735 11.0455 2.54735C8.39044 2.54735 6.93556 4.91765 6.93556 6.5433C6.93556 7.88469 8.19143 8.45562 9.36152 8.45562ZM15.8695 8.45562C18.2955 8.45562 19.9795 6.2577 19.9795 4.45967C19.9795 3.11828 18.7236 2.54735 17.5247 2.54735C14.8704 2.54735 13.415 4.91631 13.415 6.5433C13.415 7.88469 14.6994 8.45562 15.8695 8.45562ZM23.3187 8.34132H25.345L27 0.265259H24.9452L24.4597 2.66272L23.6035 2.5772C21.6056 2.5772 19.7791 5.1457 19.7791 6.9725C19.7791 7.71446 20.2632 8.45669 21.092 8.45669C22.2621 8.45669 23.0898 7.88577 23.4316 7.31484H23.5457L23.3187 8.34132ZM16.982 12.5941C15.387 13.9157 13.3383 14.561 11.2738 14.3921C8.56228 14.2208 6.62145 12.1372 6.27911 9.93954H6.39314C7.02108 11.3111 8.53378 12.5941 10.3891 12.7936C12.2716 13.022 14.5276 12.166 15.7547 10.9956L14.3848 9.93954H18.5232L17.6089 14.3351L17.0095 12.6226L16.982 12.5941Z" fill="#F59A1B"/>
</g>
<defs>
<clipPath id="clip0_61_17">
<rect width="27" height="14.2686" fill="white" transform="translate(0 0.149902)"/>
</clipPath>
</defs>
</svg>
