<svg width="265" height="37" viewBox="0 0 265 37" fill="none" xmlns="http://www.w3.org/2000/svg">
<path d="M49.2689 9.76925V13.5917H40.4773V18.5902H47.2107V22.2656H40.4773V27.367H49.2689V31.1895H35.4788V9.76925H49.2689ZM63.0569 21.3982C63.2529 21.7706 63.4391 22.1578 63.6156 22.5596C63.8018 22.9615 63.9782 23.3731 64.1448 23.7946C64.3114 23.3633 64.4878 22.9468 64.6741 22.5449C64.8603 22.1333 65.0514 21.7363 65.2474 21.3541L70.7458 10.5337C70.8438 10.3475 70.9418 10.2054 71.0399 10.1074C71.1477 9.99957 71.2653 9.92116 71.3927 9.87216C71.5201 9.82315 71.6622 9.79375 71.819 9.78395C71.9857 9.77415 72.1768 9.76925 72.3924 9.76925H76.1854V31.1895H71.8043V18.8695C71.8043 18.2717 71.8337 17.6248 71.8925 16.9289L66.2177 27.9404C66.0413 28.2834 65.8012 28.5432 65.4974 28.7196C65.2033 28.896 64.8652 28.9842 64.4829 28.9842H63.8067C63.4244 28.9842 63.0814 28.896 62.7776 28.7196C62.4835 28.5432 62.2483 28.2834 62.0719 27.9404L56.3677 16.9142C56.4069 17.2573 56.4363 17.6003 56.4559 17.9433C56.4755 18.2766 56.4853 18.5853 56.4853 18.8695V31.1895H52.1042V9.76925H55.8972C56.1128 9.76925 56.2991 9.77415 56.4559 9.78395C56.6225 9.79375 56.7695 9.82315 56.8969 9.87216C57.0243 9.92116 57.1371 9.99957 57.2351 10.1074C57.3429 10.2054 57.4458 10.3475 57.5438 10.5337L63.0569 21.3982ZM84.6962 24.0298V31.1895H79.7271V9.76925H87.2837C88.7931 9.76925 90.0868 9.95056 91.1649 10.3132C92.2529 10.666 93.1448 11.1561 93.8406 11.7834C94.5463 12.4106 95.0658 13.1506 95.399 14.0033C95.7322 14.856 95.8989 15.7773 95.8989 16.7672C95.8989 17.8355 95.7273 18.8156 95.3843 19.7075C95.0413 20.5994 94.5169 21.3639 93.8112 22.001C93.1056 22.638 92.2088 23.1379 91.1208 23.5005C90.0427 23.8534 88.7637 24.0298 87.2837 24.0298H84.6962ZM84.6962 20.2809H87.2837C88.5775 20.2809 89.5086 19.9721 90.077 19.3547C90.6455 18.7372 90.9297 17.8747 90.9297 16.7672C90.9297 16.2771 90.8562 15.8312 90.7092 15.4294C90.5622 15.0275 90.3368 14.6845 90.0329 14.4002C89.7389 14.1062 89.3615 13.8808 88.9009 13.724C88.4501 13.5672 87.911 13.4887 87.2837 13.4887H84.6962V20.2809ZM103.917 31.1895H98.9184V9.76925H103.917V31.1895ZM112.865 23.2653V31.1895H107.896V9.76925H114.864C116.413 9.76925 117.731 9.93096 118.819 10.2544C119.917 10.568 120.808 11.0091 121.495 11.5775C122.19 12.146 122.695 12.8174 123.009 13.5917C123.322 14.3659 123.479 15.2088 123.479 16.1203C123.479 16.8162 123.386 17.4729 123.2 18.0903C123.014 18.7078 122.734 19.2812 122.362 19.8104C121.999 20.3299 121.548 20.7954 121.009 21.2071C120.48 21.6187 119.868 21.9569 119.172 22.2215C119.505 22.3881 119.814 22.5939 120.098 22.839C120.392 23.084 120.647 23.3829 120.862 23.7357L125.42 31.1895H120.921C120.088 31.1895 119.49 30.8758 119.128 30.2486L115.57 24.0298C115.413 23.7554 115.227 23.5593 115.011 23.4417C114.805 23.3241 114.511 23.2653 114.129 23.2653H112.865ZM112.865 19.8398H114.864C115.54 19.8398 116.114 19.7565 116.584 19.5899C117.064 19.4135 117.457 19.1734 117.76 18.8695C118.064 18.5657 118.285 18.2129 118.422 17.811C118.559 17.3994 118.628 16.9583 118.628 16.4879C118.628 15.547 118.319 14.8119 117.702 14.2826C117.094 13.7534 116.148 13.4887 114.864 13.4887H112.865V19.8398ZM141.24 9.76925V13.5917H132.448V18.5902H139.182V22.2656H132.448V27.367H141.24V31.1895H127.45V9.76925H141.24ZM150.555 31.1895V10.1221H157.273C158.567 10.1221 159.679 10.2495 160.61 10.5043C161.551 10.7592 162.321 11.1218 162.919 11.5922C163.526 12.0627 163.972 12.641 164.256 13.327C164.55 14.0033 164.697 14.7678 164.697 15.6205C164.697 16.1399 164.614 16.6398 164.448 17.12C164.291 17.6003 164.046 18.0462 163.712 18.4579C163.389 18.8695 162.977 19.2371 162.478 19.5605C161.987 19.8839 161.409 20.1486 160.743 20.3544C162.281 20.6582 163.443 21.212 164.227 22.0157C165.011 22.8194 165.403 23.8779 165.403 25.1912C165.403 26.0831 165.237 26.8966 164.903 27.6317C164.58 28.3667 164.1 28.9989 163.463 29.5282C162.835 30.0574 162.061 30.4691 161.14 30.7631C160.228 31.0473 159.184 31.1895 158.008 31.1895H150.555ZM153.407 21.5893V28.9254H157.964C158.778 28.9254 159.473 28.8323 160.052 28.6461C160.64 28.4599 161.12 28.2001 161.492 27.8669C161.875 27.5239 162.154 27.122 162.33 26.6614C162.507 26.1909 162.595 25.6764 162.595 25.1177C162.595 24.0298 162.208 23.1722 161.434 22.5449C160.669 21.9079 159.508 21.5893 157.949 21.5893H153.407ZM153.407 19.5605H157.17C157.974 19.5605 158.67 19.4723 159.258 19.2959C159.846 19.1195 160.331 18.8744 160.713 18.5608C161.105 18.2472 161.394 17.8698 161.581 17.4288C161.767 16.9779 161.86 16.4879 161.86 15.9586C161.86 14.7237 161.488 13.8171 160.743 13.2388C159.998 12.6606 158.841 12.3714 157.273 12.3714H153.407V19.5605ZM177.781 28.9254C178.653 28.9254 179.432 28.7784 180.118 28.4844C180.804 28.1903 181.383 27.7787 181.853 27.2494C182.333 26.7202 182.696 26.088 182.941 25.3529C183.196 24.6178 183.323 23.8093 183.323 22.9272V10.1221H186.161V22.9272C186.161 24.1425 185.965 25.2696 185.573 26.3085C185.19 27.3474 184.637 28.2491 183.911 29.0136C183.196 29.7683 182.319 30.3613 181.28 30.7925C180.241 31.2238 179.074 31.4394 177.781 31.4394C176.487 31.4394 175.321 31.2238 174.282 30.7925C173.243 30.3613 172.361 29.7683 171.635 29.0136C170.91 28.2491 170.352 27.3474 169.959 26.3085C169.577 25.2696 169.386 24.1425 169.386 22.9272V10.1221H172.224V22.9125C172.224 23.7946 172.346 24.6031 172.591 25.3382C172.846 26.0733 173.209 26.7055 173.679 27.2347C174.159 27.764 174.742 28.1805 175.428 28.4844C176.124 28.7784 176.908 28.9254 177.781 28.9254ZM194.201 22.3979V31.1895H191.364V10.1221H197.318C198.651 10.1221 199.803 10.2593 200.773 10.5337C201.743 10.7984 202.542 11.1855 203.169 11.6952C203.806 12.2048 204.277 12.8223 204.581 13.5476C204.885 14.263 205.037 15.0667 205.037 15.9586C205.037 16.7035 204.919 17.3994 204.684 18.0462C204.448 18.6931 204.105 19.2763 203.655 19.7957C203.214 20.3054 202.67 20.7415 202.023 21.1042C201.386 21.4668 200.66 21.7412 199.847 21.9275C200.2 22.1333 200.513 22.4322 200.788 22.8243L206.933 31.1895H204.404C203.885 31.1895 203.503 30.9885 203.258 30.5867L197.789 23.0595C197.622 22.8243 197.441 22.6576 197.245 22.5596C197.049 22.4518 196.755 22.3979 196.363 22.3979H194.201ZM194.201 20.325H197.186C198.019 20.325 198.749 20.227 199.376 20.031C200.013 19.8251 200.543 19.5409 200.964 19.1783C201.395 18.8058 201.719 18.3648 201.934 17.8551C202.15 17.3455 202.258 16.7819 202.258 16.1644C202.258 14.9099 201.841 13.9641 201.008 13.327C200.185 12.69 198.955 12.3714 197.318 12.3714H194.201V20.325ZM218.698 29.1165C219.266 29.1165 219.786 29.092 220.256 29.043C220.736 28.9842 221.187 28.9009 221.609 28.7931C222.03 28.6853 222.427 28.5579 222.799 28.4109C223.172 28.254 223.544 28.0776 223.917 27.8816V23.2359H220.653C220.467 23.2359 220.315 23.182 220.197 23.0742C220.089 22.9664 220.036 22.8341 220.036 22.6772V21.0601H226.504V29.1459C225.975 29.5282 225.421 29.8614 224.843 30.1456C224.275 30.4299 223.662 30.67 223.005 30.866C222.358 31.0522 221.663 31.1895 220.918 31.2777C220.173 31.3757 219.364 31.4247 218.492 31.4247C216.963 31.4247 215.561 31.165 214.287 30.6455C213.013 30.1162 211.915 29.3812 210.994 28.4403C210.073 27.4896 209.352 26.3526 208.833 25.0295C208.323 23.7063 208.068 22.2509 208.068 20.6631C208.068 19.0557 208.318 17.5905 208.818 16.2673C209.328 14.9442 210.048 13.8122 210.979 12.8713C211.92 11.9206 213.052 11.1855 214.375 10.666C215.708 10.1466 217.198 9.88686 218.845 9.88686C219.678 9.88686 220.452 9.95056 221.168 10.078C221.883 10.1956 222.545 10.372 223.152 10.6072C223.77 10.8327 224.338 11.112 224.858 11.4452C225.377 11.7687 225.862 12.1362 226.313 12.5478L225.505 13.8416C225.338 14.1062 225.122 14.2385 224.858 14.2385C224.701 14.2385 224.529 14.1846 224.343 14.0768C224.098 13.9396 223.824 13.773 223.52 13.577C223.216 13.3809 222.844 13.1947 222.403 13.0183C221.971 12.8321 221.457 12.6753 220.859 12.5478C220.271 12.4204 219.57 12.3567 218.757 12.3567C217.571 12.3567 216.497 12.5527 215.537 12.9448C214.576 13.327 213.758 13.8808 213.082 14.6061C212.405 15.3215 211.886 16.1938 211.523 17.2229C211.161 18.2423 210.979 19.389 210.979 20.6631C210.979 21.9961 211.166 23.1869 211.538 24.2356C211.92 25.2745 212.454 26.1566 213.141 26.8819C213.827 27.6072 214.64 28.1609 215.581 28.5432C216.522 28.9254 217.561 29.1165 218.698 29.1165ZM243.878 10.1221V12.4449H233.763V19.4429H241.952V21.6775H233.763V28.8666H243.878V31.1895H230.896V10.1221H243.878ZM251.113 22.3979V31.1895H248.275V10.1221H254.229C255.562 10.1221 256.714 10.2593 257.684 10.5337C258.655 10.7984 259.453 11.1855 260.081 11.6952C260.718 12.2048 261.188 12.8223 261.492 13.5476C261.796 14.263 261.948 15.0667 261.948 15.9586C261.948 16.7035 261.83 17.3994 261.595 18.0462C261.36 18.6931 261.017 19.2763 260.566 19.7957C260.125 20.3054 259.581 20.7415 258.934 21.1042C258.297 21.4668 257.572 21.7412 256.758 21.9275C257.111 22.1333 257.425 22.4322 257.699 22.8243L263.844 31.1895H261.316C260.796 31.1895 260.414 30.9885 260.169 30.5867L254.7 23.0595C254.533 22.8243 254.352 22.6576 254.156 22.5596C253.96 22.4518 253.666 22.3979 253.274 22.3979H251.113ZM251.113 20.325H254.097C254.93 20.325 255.66 20.227 256.288 20.031C256.925 19.8251 257.454 19.5409 257.875 19.1783C258.307 18.8058 258.63 18.3648 258.846 17.8551C259.061 17.3455 259.169 16.7819 259.169 16.1644C259.169 14.9099 258.753 13.9641 257.92 13.327C257.096 12.69 255.866 12.3714 254.229 12.3714H251.113V20.325Z" fill="#F59A1B"/>
<g clip-path="url(#clip0_61_16)">
<path d="M26.0475 24.9874V27.2007C25.9774 27.485 25.9296 27.777 25.8349 28.0528C25.2425 29.7723 23.7464 30.8262 21.9059 30.83C17.111 30.83 12.3162 30.83 7.5213 30.83C7.41036 30.83 7.3002 30.83 7.18926 30.8216C5.37347 30.7299 3.76336 29.3509 3.47524 27.559C3.3566 26.8156 3.3982 26.0459 3.38279 25.2879C3.37046 24.6716 3.69094 24.3634 4.3034 24.3634C8.00125 24.3634 11.697 24.3634 15.3908 24.3634C15.6575 24.36 15.9173 24.4478 16.1273 24.6123C16.9033 25.2003 17.6816 25.7848 18.4623 26.3656C18.5609 26.4427 18.6611 26.5112 18.7628 26.5852C19.6533 25.9142 20.5246 25.2601 21.3944 24.603C21.6046 24.4387 21.8649 24.3517 22.1316 24.3565C23.0985 24.3634 24.0653 24.3734 25.0306 24.3565C25.5275 24.3426 25.8703 24.5144 26.0475 24.9874Z" fill="#F43127"/>
<path d="M29.5143 4.5367C29.2832 5.41725 29.0521 6.29626 28.8287 7.17835C27.9982 10.491 27.1713 13.8037 26.3481 17.1163C26.3003 17.3105 26.2248 17.3729 26.0222 17.3729C18.4986 17.3672 10.9745 17.3654 3.44991 17.3675C3.38366 17.3675 3.31663 17.3613 3.21879 17.3559C3.06472 16.7558 2.91064 16.1541 2.76196 15.5509C1.8606 11.9496 0.961823 8.3478 0.0656083 4.74548C0.00984413 4.56253 -0.00952295 4.37042 0.00860057 4.18002C0.113373 3.53289 0.859876 3.25556 1.39529 3.66617C2.24272 4.32485 3.08013 5.00433 3.92062 5.6761L7.52062 8.55734C8.03216 8.96642 8.10766 9.21602 7.90042 9.83002C7.75657 10.2376 7.76939 10.6841 7.9364 11.0828C8.10341 11.4814 8.41267 11.8037 8.80408 11.9871C9.18617 12.1666 9.62059 12.2007 10.026 12.083C10.4314 11.9653 10.78 11.7039 11.0066 11.3477C11.2372 10.988 11.3268 10.5558 11.2583 10.1341C11.1898 9.71241 10.9679 9.33087 10.6353 9.06271C10.1291 8.64209 10.059 8.31698 10.351 7.73149C11.5323 5.36281 12.7151 2.99337 13.8994 0.623151C14.0797 0.259529 14.3254 -0.00240172 14.7468 -0.00317211C15.1682 -0.00394249 15.4194 0.254137 15.6004 0.618529C16.7817 2.98977 17.9642 5.35896 19.148 7.7261C19.4416 8.3139 19.3707 8.65056 18.8715 9.05963C18.5376 9.32698 18.3146 9.70858 18.2456 10.1307C18.1766 10.5529 18.2664 10.9856 18.4978 11.3454C18.7232 11.7023 19.0709 11.965 19.4758 12.0841C19.8808 12.2032 20.3153 12.1706 20.6981 11.9925C21.0857 11.813 21.3936 11.4972 21.5631 11.1051C21.7327 10.7131 21.7519 10.2723 21.6171 9.867C21.4006 9.19676 21.463 8.98491 22.0023 8.54887C23.9822 6.96342 25.9624 5.37899 27.9428 3.79559C28.603 3.26788 29.1284 3.38344 29.5143 4.13456V4.5367Z" fill="#F43127"/>
<path d="M3.45905 19.123H26.0475V19.4173C26.0475 20.1284 26.0475 20.8395 26.0475 21.5505C26.0475 22.2385 25.7078 22.5767 25.019 22.5767H4.5268C3.78338 22.5767 3.4629 22.2516 3.46213 21.4981C3.46213 20.8063 3.46213 20.1148 3.46213 19.4235L3.45905 19.123Z" fill="#F43127"/>
</g>
<defs>
<clipPath id="clip0_61_16">
<rect width="29.5142" height="30.8316" fill="white"/>
</clipPath>
</defs>
</svg>
