<svg width="265" height="36" viewBox="0 0 265 36" fill="none" xmlns="http://www.w3.org/2000/svg">
<path d="M40.359 12.3234V17.8031H47.4693V21.1378H40.359V26.735H49.4966V30.1873H35.9224V8.87115H49.4966V12.3234H40.359ZM76.2987 8.87115V30.1873H72.4057V17.0979C72.4057 16.8237 72.4106 16.5299 72.4204 16.2165C72.44 15.9031 72.4694 15.5848 72.5085 15.2616L66.4119 26.8231C66.0789 27.4597 65.5648 27.778 64.8694 27.778H64.2524C63.9096 27.778 63.606 27.6996 63.3416 27.5429C63.0771 27.3764 62.8666 27.1365 62.7099 26.8231L56.5839 15.2175C56.6133 15.5603 56.6378 15.8933 56.6573 16.2165C56.6769 16.5299 56.6867 16.8237 56.6867 17.0979V30.1873H52.7937V8.87115H56.1432C56.3292 8.87115 56.4957 8.87604 56.6426 8.88584C56.7896 8.89563 56.9169 8.92501 57.0246 8.97398C57.1421 9.01316 57.245 9.08171 57.3331 9.17965C57.431 9.26779 57.5241 9.39511 57.6122 9.56161L63.5766 20.9322C63.7627 21.2749 63.9341 21.6275 64.0908 21.9899C64.2573 22.3523 64.414 22.7244 64.5609 23.1064C64.7078 22.7146 64.8596 22.3327 65.0163 21.9605C65.1828 21.5883 65.3591 21.2309 65.5452 20.8881L71.4655 9.56161C71.5536 9.39511 71.6467 9.26779 71.7446 9.17965C71.8426 9.08171 71.9454 9.01316 72.0531 8.97398C72.1706 8.92501 72.298 8.89563 72.4351 8.88584C72.582 8.87604 72.7534 8.87115 72.9492 8.87115H76.2987ZM87.9387 19.4778C89.3197 19.4778 90.3284 19.1448 90.965 18.4788C91.6114 17.8128 91.9346 16.902 91.9346 15.7464C91.9346 15.2175 91.8513 14.7376 91.6849 14.3067C91.5282 13.866 91.2833 13.4938 90.9503 13.1902C90.6271 12.8768 90.2158 12.6368 89.7163 12.4704C89.2168 12.3039 88.6243 12.2206 87.9387 12.2206H85.1475V19.4778H87.9387ZM87.9387 8.87115C89.398 8.87115 90.6565 9.04254 91.7142 9.38532C92.7818 9.7281 93.6583 10.208 94.3439 10.825C95.0294 11.4322 95.5338 12.157 95.857 12.9992C96.19 13.8415 96.3565 14.7572 96.3565 15.7464C96.3565 16.7943 96.1851 17.7541 95.8423 18.6257C95.4995 19.4974 94.9805 20.2466 94.2851 20.8734C93.5897 21.5002 92.7132 21.9899 91.6555 22.3425C90.5977 22.6852 89.3588 22.8566 87.9387 22.8566H85.1475V30.1873H80.7403V8.87115H87.9387ZM103.598 30.1873H99.161V8.87115H103.598V30.1873ZM114.725 18.9636C115.44 18.9636 116.057 18.8755 116.576 18.6992C117.095 18.5131 117.521 18.2634 117.854 17.95C118.187 17.6268 118.432 17.2497 118.589 16.8188C118.746 16.3879 118.824 15.9178 118.824 15.4085C118.824 14.3997 118.486 13.6162 117.81 13.058C117.144 12.4997 116.126 12.2206 114.755 12.2206H112.463V18.9636H114.725ZM125.053 30.1873H121.072C120.327 30.1873 119.789 29.9032 119.456 29.3352L115.401 22.7979C115.235 22.5432 115.048 22.3571 114.843 22.2396C114.647 22.1221 114.353 22.0633 113.961 22.0633H112.463V30.1873H108.056V8.87115H114.755C116.243 8.87115 117.516 9.02785 118.574 9.34125C119.632 9.64486 120.499 10.0709 121.174 10.6193C121.85 11.1678 122.345 11.824 122.658 12.5879C122.972 13.342 123.128 14.1745 123.128 15.0853C123.128 15.7904 123.025 16.4613 122.82 17.0979C122.624 17.7247 122.335 18.2976 121.953 18.8167C121.571 19.3358 121.101 19.7961 120.543 20.1976C119.985 20.5992 119.348 20.9224 118.633 21.1672C118.917 21.3239 119.181 21.5149 119.426 21.7401C119.671 21.9556 119.891 22.2151 120.087 22.5187L125.053 30.1873ZM131.573 12.3234V17.8031H138.683V21.1378H131.573V26.735H140.71V30.1873H127.136V8.87115H140.71V12.3234H131.573ZM158.825 27.9249C159.638 27.9249 160.338 27.8319 160.925 27.6458C161.513 27.4597 161.993 27.2002 162.365 26.8672C162.747 26.5244 163.026 26.1228 163.203 25.6625C163.379 25.1924 163.467 24.6783 163.467 24.12C163.467 23.0329 163.08 22.176 162.306 21.5492C161.533 20.9126 160.372 20.5943 158.825 20.5943H154.271V27.9249H158.825ZM154.271 11.3832V18.567H158.031C158.835 18.567 159.53 18.4788 160.117 18.3025C160.715 18.1262 161.205 17.8814 161.587 17.568C161.978 17.2546 162.267 16.8775 162.453 16.4368C162.639 15.9863 162.732 15.4966 162.732 14.9678C162.732 13.724 162.36 12.818 161.616 12.25C160.872 11.6722 159.716 11.3832 158.149 11.3832H154.271ZM158.149 9.13558C159.442 9.13558 160.553 9.2629 161.484 9.51754C162.424 9.77217 163.193 10.1345 163.79 10.6046C164.397 11.0747 164.843 11.6526 165.127 12.3381C165.411 13.0139 165.553 13.7778 165.553 14.6299C165.553 15.1489 165.47 15.6484 165.303 16.1283C165.147 16.5984 164.907 17.0391 164.583 17.4505C164.26 17.8618 163.849 18.234 163.349 18.567C162.86 18.8902 162.282 19.1546 161.616 19.3603C163.163 19.6541 164.324 20.2074 165.098 21.0203C165.881 21.8234 166.273 22.8811 166.273 24.1935C166.273 25.0847 166.106 25.8976 165.773 26.6321C165.45 27.3667 164.97 27.9984 164.334 28.5272C163.707 29.0561 162.933 29.4674 162.013 29.7612C161.092 30.0452 160.044 30.1873 158.869 30.1873H151.435V9.13558H158.149ZM178.554 27.9249C179.425 27.9249 180.204 27.778 180.89 27.4842C181.575 27.1904 182.153 26.779 182.623 26.2502C183.103 25.7213 183.465 25.0896 183.71 24.3551C183.965 23.6205 184.092 22.8126 184.092 21.9311V9.13558H186.927V21.9311C186.927 23.1455 186.732 24.2718 186.34 25.31C185.958 26.3481 185.405 27.2491 184.68 28.013C183.965 28.7672 183.088 29.3597 182.05 29.7906C181.012 30.2215 179.847 30.437 178.554 30.437C177.261 30.437 176.096 30.2215 175.057 29.7906C174.019 29.3597 173.138 28.7672 172.413 28.013C171.688 27.2491 171.13 26.3481 170.738 25.31C170.356 24.2718 170.165 23.1455 170.165 21.9311V9.13558H173.001V21.9164C173.001 22.7979 173.123 23.6059 173.368 24.3404C173.623 25.0749 173.985 25.7066 174.455 26.2355C174.935 26.7643 175.518 27.1806 176.203 27.4842C176.899 27.778 177.682 27.9249 178.554 27.9249ZM197.868 19.3309C198.69 19.3309 199.415 19.2329 200.042 19.0371C200.678 18.8314 201.207 18.5474 201.628 18.185C202.059 17.8128 202.383 17.3721 202.598 16.8629C202.813 16.3536 202.921 15.7904 202.921 15.1734C202.921 13.9198 202.51 12.9747 201.687 12.3381C200.864 11.7015 199.63 11.3832 197.985 11.3832H194.871V19.3309H197.868ZM207.593 30.1873H205.066C204.547 30.1873 204.165 29.9865 203.92 29.5849L198.455 22.0633C198.289 21.8283 198.108 21.6618 197.912 21.5639C197.726 21.4561 197.432 21.4023 197.03 21.4023H194.871V30.1873H192.035V9.13558H197.985C199.317 9.13558 200.468 9.27269 201.437 9.54692C202.407 9.81135 203.205 10.1982 203.832 10.7075C204.469 11.2168 204.939 11.8338 205.242 12.5585C205.546 13.2734 205.698 14.0765 205.698 14.9678C205.698 15.7121 205.58 16.4074 205.345 17.0538C205.11 17.7002 204.767 18.2829 204.317 18.802C203.876 19.3113 203.333 19.7471 202.686 20.1095C202.05 20.4719 201.325 20.7461 200.512 20.9322C200.874 21.1378 201.188 21.4365 201.452 21.8283L207.593 30.1873ZM227.355 20.0654V28.1453C226.297 28.9092 225.166 29.4821 223.962 29.8641C222.767 30.2362 221.454 30.4223 220.025 30.4223C218.33 30.4223 216.802 30.1628 215.441 29.6437C214.08 29.1148 212.914 28.3803 211.945 27.4401C210.985 26.4901 210.245 25.354 209.726 24.0319C209.207 22.7097 208.948 21.2554 208.948 19.6688C208.948 18.0626 209.198 16.5984 209.697 15.2763C210.206 13.9541 210.926 12.8229 211.857 11.8827C212.787 10.9327 213.918 10.1982 215.25 9.67913C216.582 9.16006 218.071 8.90053 219.716 8.90053C220.548 8.90053 221.322 8.96419 222.037 9.09151C222.752 9.20903 223.413 9.38532 224.02 9.62037C224.628 9.84563 225.191 10.1247 225.71 10.4577C226.229 10.7809 226.714 11.1482 227.164 11.5595L226.356 12.8523C226.229 13.0482 226.062 13.1755 225.857 13.2343C225.661 13.2832 225.44 13.2343 225.196 13.0874C224.961 12.9502 224.691 12.7838 224.388 12.5879C224.084 12.392 223.712 12.2059 223.271 12.0296C222.84 11.8436 222.326 11.6869 221.729 11.5595C221.141 11.4322 220.441 11.3686 219.628 11.3686C218.443 11.3686 217.37 11.5644 216.411 11.9562C215.451 12.3381 214.633 12.8915 213.957 13.6162C213.282 14.3312 212.762 15.2028 212.4 16.2312C212.038 17.2497 211.857 18.3956 211.857 19.6688C211.857 20.9909 212.043 22.176 212.415 23.2239C212.797 24.262 213.335 25.1484 214.031 25.8829C214.736 26.6076 215.588 27.161 216.587 27.5429C217.586 27.9249 218.707 28.1159 219.951 28.1159C220.93 28.1159 221.797 28.0081 222.551 27.7927C223.315 27.5674 224.06 27.2589 224.784 26.8672V22.2396H221.508C221.322 22.2396 221.17 22.1858 221.053 22.078C220.945 21.9703 220.891 21.8381 220.891 21.6814V20.0654H227.355ZM244.704 27.8661L244.689 30.1873H231.717V9.13558H244.689V11.4567H234.567V18.4494H242.765V20.6824H234.567V27.8661H244.704ZM254.507 19.3309C255.33 19.3309 256.054 19.2329 256.681 19.0371C257.318 18.8314 257.847 18.5474 258.268 18.185C258.699 17.8128 259.022 17.3721 259.237 16.8629C259.453 16.3536 259.56 15.7904 259.56 15.1734C259.56 13.9198 259.149 12.9747 258.326 12.3381C257.504 11.7015 256.27 11.3832 254.624 11.3832H251.51V19.3309H254.507ZM264.232 30.1873H261.705C261.186 30.1873 260.804 29.9865 260.559 29.5849L255.094 22.0633C254.928 21.8283 254.747 21.6618 254.551 21.5639C254.365 21.4561 254.071 21.4023 253.669 21.4023H251.51V30.1873H248.675V9.13558H254.624C255.956 9.13558 257.107 9.27269 258.077 9.54692C259.046 9.81135 259.844 10.1982 260.471 10.7075C261.108 11.2168 261.578 11.8338 261.882 12.5585C262.185 13.2734 262.337 14.0765 262.337 14.9678C262.337 15.7121 262.219 16.4074 261.984 17.0538C261.749 17.7002 261.407 18.2829 260.956 18.802C260.515 19.3113 259.972 19.7471 259.325 20.1095C258.689 20.4719 257.964 20.7461 257.151 20.9322C257.514 21.1378 257.827 21.4365 258.091 21.8283L264.232 30.1873Z" fill="#1D0605" fill-opacity="0.9"/>
<g clip-path="url(#clip0_47_30)">
<path d="M26.0281 24.9686V27.1803C25.958 27.4644 25.9103 27.7561 25.8156 28.0317C25.2236 29.7499 23.7286 30.803 21.8896 30.8069C17.0983 30.8069 12.307 30.8069 7.51565 30.8069C7.4048 30.8069 7.29472 30.8069 7.18386 30.7984C5.36942 30.7068 3.76051 29.3289 3.4726 27.5383C3.35405 26.7954 3.39562 26.0264 3.38023 25.2689C3.36791 24.653 3.68815 24.3451 4.30015 24.3451C7.99524 24.3451 11.6883 24.3451 15.3793 24.3451C15.6457 24.3417 15.9054 24.4294 16.1152 24.5937C16.8907 25.1814 17.6684 25.7654 18.4485 26.3458C18.547 26.4228 18.6471 26.4913 18.7487 26.5652C19.6386 25.8947 20.5093 25.2412 21.3784 24.5845C21.5885 24.4203 21.8486 24.3334 22.1151 24.3382C23.0812 24.3451 24.0473 24.3551 25.0119 24.3382C25.5084 24.3243 25.851 24.496 26.0281 24.9686Z" fill="#1D0605" fill-opacity="0.9"/>
<path d="M29.4923 4.53332C29.2614 5.41322 29.0304 6.29157 28.8072 7.173C27.9773 10.4832 27.151 13.7934 26.3284 17.1036C26.2806 17.2976 26.2052 17.3599 26.0027 17.3599C18.4848 17.3543 10.9663 17.3525 3.44728 17.3545C3.38107 17.3545 3.3141 17.3484 3.21634 17.343C3.06237 16.7433 2.90841 16.1421 2.75984 15.5393C1.85916 11.9407 0.961047 8.34158 0.0654999 4.74194C0.00977727 4.55913 -0.00957539 4.36716 0.00853463 4.1769C0.113229 3.53026 0.859176 3.25313 1.39419 3.66344C2.24099 4.32163 3.07777 5.0006 3.91764 5.67187L7.51496 8.55097C8.02612 8.95973 8.10156 9.20915 7.89448 9.82269C7.75073 10.23 7.76355 10.6762 7.93043 11.0745C8.09731 11.4729 8.40635 11.795 8.79746 11.9782C9.17927 12.1575 9.61336 12.1916 10.0185 12.074C10.4236 11.9564 10.772 11.6952 10.9984 11.3392C11.2288 10.9798 11.3183 10.548 11.2499 10.1266C11.1814 9.70517 10.9597 9.32391 10.6273 9.05596C10.1215 8.63564 10.0515 8.31078 10.3432 7.72573C11.5236 5.35882 12.7055 2.99114 13.889 0.622684C14.0691 0.259334 14.3147 -0.0024023 14.7358 -0.00317211C15.1569 -0.00394192 15.4078 0.253945 15.5887 0.618066C16.7691 2.98754 17.9508 5.35497 19.1337 7.72034C19.427 8.3077 19.3562 8.64411 18.8574 9.05288C18.5237 9.32003 18.3009 9.70134 18.2319 10.1232C18.163 10.545 18.2528 10.9774 18.484 11.3369C18.7091 11.6936 19.0566 11.9561 19.4613 12.0751C19.866 12.1941 20.3002 12.1616 20.6826 11.9836C21.0699 11.8042 21.3776 11.4886 21.547 11.0968C21.7164 10.7051 21.7356 10.2647 21.601 9.85964C21.3846 9.18991 21.447 8.97821 21.9859 8.5425C23.9643 6.95823 25.9429 5.37498 27.9219 3.79276C28.5816 3.26544 29.1066 3.38092 29.4923 4.13148V4.53332Z" fill="#1D0605" fill-opacity="0.9"/>
<path d="M3.45654 19.1091H26.0282V19.4032C26.0282 20.1137 26.0282 20.8243 26.0282 21.5348C26.0282 22.2222 25.6887 22.5602 25.0005 22.5602H4.5235C3.78064 22.5602 3.4604 22.2353 3.45963 21.4825C3.45963 20.7912 3.45963 20.1001 3.45963 19.4094L3.45654 19.1091Z" fill="#1D0605" fill-opacity="0.9"/>
</g>
<defs>
<clipPath id="clip0_47_30">
<rect width="29.4922" height="30.8086" fill="white"/>
</clipPath>
</defs>
</svg>
