<svg width="73" height="73" viewBox="0 0 73 73" fill="none" xmlns="http://www.w3.org/2000/svg">
<circle cx="36.5" cy="36.5" r="36.5" fill="#1D0605" fill-opacity="0.2"/>
<g clip-path="url(#clip0_20_39)">
<path d="M34.8749 19.4968V16.2169C33.7924 16.2169 32.7302 16.2303 31.6694 16.2129C30.4784 16.1941 29.6957 15.0605 30.1433 14.0075C30.4106 13.381 30.9098 13.0134 31.6002 13.0108C34.8844 12.9973 38.1685 12.996 41.4513 13.0108C42.333 13.0148 43.0181 13.7472 43.0222 14.6004C43.0262 15.4751 42.3303 16.1941 41.4187 16.2102C40.3539 16.229 39.289 16.2142 38.1861 16.2142V19.5049C42.272 19.8872 45.9048 21.3655 49.1373 24.0337C49.4873 23.6661 49.8265 23.2999 50.1778 22.9444C50.6268 22.4883 51.0799 22.0376 51.5384 21.5909C52.2709 20.8772 53.2652 20.8463 53.9327 21.5104C54.5987 22.1731 54.5607 23.147 53.8309 23.8768C53.1527 24.5555 52.4635 25.2223 51.7799 25.897C51.6618 26.0137 51.5506 26.1371 51.419 26.2753C54.8822 30.501 56.4381 35.3062 55.8955 40.7097C55.4655 44.9903 53.7088 48.7103 50.7652 51.8815C45.0936 57.9906 35.6752 59.7399 28.1235 56.1434C20.3113 52.4248 16.1033 44.2887 17.1614 36.2318C18.2873 27.6584 25.2531 20.401 34.8749 19.4968ZM20.2706 38.6894C20.2638 47.5391 27.5144 54.7577 36.4362 54.7831C45.4639 54.81 52.7579 47.6371 52.7769 38.7122C52.7959 29.892 45.4978 22.6493 36.5868 22.6439C27.5727 22.6372 20.2773 29.8115 20.2706 38.6894Z" fill="#FAE2CB"/>
<path d="M49.5254 38.7417C49.5281 45.7831 43.6937 51.5622 36.5706 51.5703C29.3472 51.5783 23.5155 45.8207 23.5195 38.6853C23.5236 31.6359 29.3526 25.8635 36.473 25.8581C43.7019 25.8527 49.5213 31.5956 49.5241 38.7403L49.5254 38.7417ZM34.898 34.6931C34.898 35.9984 34.8573 37.305 34.9211 38.6062C34.9414 39.0368 35.1219 39.556 35.4149 39.8591C36.9912 41.4917 38.6149 43.0814 40.2536 44.6549C40.5113 44.9018 40.9169 45.0681 41.2778 45.1258C41.9506 45.2331 42.5963 44.8199 42.8812 44.2149C43.1755 43.5898 43.0575 42.9056 42.5217 42.3717C41.1747 41.0303 39.8086 39.7076 38.4725 38.3567C38.2975 38.1796 38.1659 37.8764 38.1632 37.6309C38.1401 35.4068 38.1496 33.1812 38.1496 30.9571C38.1496 29.8088 37.5026 29.0683 36.5109 29.0763C35.5342 29.0844 34.9008 29.8114 34.8994 30.9316C34.898 32.1859 34.8994 33.4402 34.8994 34.6944L34.898 34.6931Z" fill="#FAE2CB"/>
</g>
<defs>
<clipPath id="clip0_20_39">
<rect width="39" height="45" fill="white" transform="translate(17 13)"/>
</clipPath>
</defs>
</svg>
