<svg width="60" height="61" viewBox="0 0 60 61" fill="none" xmlns="http://www.w3.org/2000/svg">
<circle cx="30" cy="30.5371" r="30" fill="#FAE2CB"/>
<g clip-path="url(#clip0_25_19)">
<path d="M29.3572 15.5371H31.1737C31.5394 15.5824 31.9076 15.6191 32.2722 15.673C36.2049 16.2568 39.4404 18.0816 41.8966 21.2111C44.2942 24.2671 45.2911 27.7662 44.9266 31.6313C44.6783 34.2639 43.7596 36.6664 42.1658 38.7788C39.3609 42.4982 35.6104 44.5115 30.9633 44.7795C28.3602 44.9301 25.882 44.3756 23.5529 43.1885C23.3743 43.0979 23.2202 43.082 23.0269 43.1444C20.5853 43.9277 18.1413 44.6987 15.7009 45.4845C15.4159 45.5763 15.1908 45.5616 15 45.3217V45.028C15.0379 44.9399 15.0832 44.8542 15.1138 44.7636C15.8905 42.4749 16.6636 40.185 17.4477 37.8988C17.5272 37.6675 17.5174 37.4839 17.3939 37.2685C16.4703 35.6579 15.9015 33.9224 15.6606 32.0866C15.3266 29.5286 15.6018 27.0294 16.6318 24.6588C18.7566 19.773 22.4618 16.8173 27.6838 15.7733C28.2355 15.6632 28.7994 15.6142 29.3572 15.5371ZM19.6177 41.0173C19.7511 40.9806 19.833 40.961 19.9138 40.9353C21.0294 40.5816 22.1462 40.234 23.2569 39.8693C23.548 39.7738 23.7865 39.7885 24.0544 39.9586C25.5089 40.8827 27.0966 41.4432 28.8067 41.6586C30.9193 41.9254 32.956 41.6317 34.9046 40.7909C36.8838 39.9378 38.5107 38.627 39.7694 36.872C40.9792 35.1854 41.696 33.3055 41.8869 31.2408C42.1266 28.6352 41.5407 26.2131 40.1315 24.0089C38.5242 21.495 36.2648 19.8354 33.3976 19.0191C31.219 18.3986 29.0367 18.4341 26.8752 19.0925C24.7639 19.7351 22.967 20.8855 21.504 22.5451C19.8453 24.4274 18.8752 26.6231 18.6514 29.1174C18.4031 31.8907 19.0758 34.445 20.6758 36.7361C20.8691 37.0127 20.9034 37.2661 20.792 37.5818C20.3969 38.7029 20.0214 39.8313 19.619 41.0161L19.6177 41.0173Z" fill="#60340B"/>
<path d="M34.2881 37.1999C33.444 37.1975 32.6306 36.9601 31.8171 36.7141C28.5596 35.73 26.255 33.5479 24.3651 30.8284C23.7021 29.8737 23.126 28.8812 22.9486 27.7148C22.7737 26.5594 22.9584 25.4641 23.608 24.4654C24.0373 23.8032 24.6832 23.5328 25.4171 23.4055C25.6373 23.3675 25.8612 23.3418 26.0838 23.3149C26.5413 23.2586 26.9156 23.4275 27.1015 23.84C27.5615 24.8619 27.9957 25.8949 28.4165 26.9339C28.5963 27.377 28.3492 27.7564 28.1107 28.1015C27.9003 28.4051 27.6336 28.6694 27.411 28.9644C27.3584 29.0341 27.3327 29.1957 27.3755 29.2569C28.5584 30.9348 29.9823 32.335 31.8991 33.1672C32.107 33.2578 32.2281 33.2296 32.3651 33.0497C32.6599 32.6618 32.9792 32.2909 33.2838 31.9103C33.696 31.395 34.0263 31.3069 34.6379 31.5786C35.1725 31.816 35.7021 32.0633 36.2306 32.3154C36.644 32.5124 37.0502 32.7254 37.4612 32.9261C37.7841 33.084 37.9235 33.3373 37.9394 33.6972C38.0434 35.9136 36.233 37.0298 34.682 37.1767C34.556 37.1889 34.4287 37.1926 34.2868 37.2012L34.2881 37.1999Z" fill="#60340B"/>
</g>
<defs>
<clipPath id="clip0_25_19">
<rect width="30" height="30" fill="white" transform="translate(15 15.5371)"/>
</clipPath>
</defs>
</svg>
